<svg width="51" height="44" viewBox="0 0 51 44" fill="none" xmlns="http://www.w3.org/2000/svg">
<path d="M30.4165 9.5V5H20.5832V9.5H30.4165ZM5.83317 14V38.75H45.1665V14H5.83317ZM45.1665 9.5C47.8953 9.5 50.0832 11.5025 50.0832 14V38.75C50.0832 41.2475 47.8953 43.25 45.1665 43.25H5.83317C3.10442 43.25 0.916504 41.2475 0.916504 38.75L0.941087 14C0.941087 11.5025 3.10442 9.5 5.83317 9.5H15.6665V5C15.6665 2.5025 17.8544 0.5 20.5832 0.5H30.4165C33.1453 0.5 35.3332 2.5025 35.3332 5V9.5H45.1665Z" fill="#EBFB63"/>
</svg>
