<svg width="253" height="220" viewBox="0 0 253 220" fill="none" xmlns="http://www.w3.org/2000/svg">
<path d="M147.583 55V36.6667H105.417V55H147.583ZM42.1667 73.3334V174.167H210.833V73.3334H42.1667ZM210.833 55C222.535 55 231.917 63.1584 231.917 73.3334V174.167C231.917 184.342 222.535 192.5 210.833 192.5H42.1667C30.4654 192.5 21.0833 184.342 21.0833 174.167L21.1888 73.3334C21.1888 63.1584 30.4654 55 42.1667 55H84.3333V36.6667C84.3333 26.4917 93.7154 18.3334 105.417 18.3334H147.583C159.285 18.3334 168.667 26.4917 168.667 36.6667V55H210.833Z" fill="#FCE6E6"/>
</svg>
