<svg width="44" height="43" viewBox="0 0 44 43" fill="none" xmlns="http://www.w3.org/2000/svg">
<path d="M38.9167 29.5V36.25C38.9167 37.4875 37.8292 38.5 36.5 38.5H34.0833V29.5H38.9167ZM9.91667 29.5V38.5H7.5C6.17083 38.5 5.08333 37.4875 5.08333 36.25V29.5H9.91667ZM22 0.25C9.98917 0.25 0.25 9.3175 0.25 20.5V36.25C0.25 39.985 3.48833 43 7.5 43H14.75V25H5.08333V20.5C5.08333 11.7925 12.6475 4.75 22 4.75C31.3525 4.75 38.9167 11.7925 38.9167 20.5V25H29.25V43H36.5C40.5117 43 43.75 39.985 43.75 36.25V20.5C43.75 9.3175 34.0108 0.25 22 0.25Z" fill="#EBFB63"/>
</svg>
