<svg width="44" height="42" viewBox="0 0 44 42" fill="none" xmlns="http://www.w3.org/2000/svg">
<path d="M38.9167 0.75H5.08333C2.425 0.75 0.25 2.775 0.25 5.25V36.75C0.25 39.225 2.425 41.25 5.08333 41.25H38.9167C41.575 41.25 43.75 39.225 43.75 36.75V5.25C43.75 2.775 41.575 0.75 38.9167 0.75ZM26.8333 26.625H27.4375V36.75H16.5625V26.625H17.1667C18.4958 26.625 19.5833 25.6125 19.5833 24.375V5.25H24.4167V24.375C24.4167 25.6125 25.5042 26.625 26.8333 26.625ZM5.08333 5.25H9.91667V24.375C9.91667 25.6125 11.0042 26.625 12.3333 26.625H12.9375V36.75H5.08333V5.25ZM38.9167 36.75H31.0625V26.625H31.6667C32.9958 26.625 34.0833 25.6125 34.0833 24.375V5.25H38.9167V36.75Z" fill="#EBFB63"/>
</svg>
