<svg width="58" height="54" viewBox="0 0 58 54" fill="none" xmlns="http://www.w3.org/2000/svg">
<path d="M48.3335 13.5H20.0585L40.0202 5.98499L38.3768 2.24999L7.83016 13.8375C6.066 14.4675 4.8335 16.1325 4.8335 18V45C4.8335 47.475 6.98433 49.5 9.66683 49.5H48.3335C51.016 49.5 53.1668 47.475 53.1668 45V18C53.1668 15.5025 51.016 13.5 48.3335 13.5ZM48.3335 18V24.75H43.5002V20.25H38.6668V24.75H9.66683V18H48.3335ZM9.66683 45V29.25H48.3335V45H9.66683Z" fill="#EBFB63"/>
<path d="M19.3332 42.705C22.6699 42.705 25.3748 40.1866 25.3748 37.08C25.3748 33.9734 22.6699 31.455 19.3332 31.455C15.9964 31.455 13.2915 33.9734 13.2915 37.08C13.2915 40.1866 15.9964 42.705 19.3332 42.705Z" fill="#EBFB63"/>
</svg>
