<svg width="80" height="80" viewBox="0 0 80 80" fill="none" xmlns="http://www.w3.org/2000/svg">
<path d="M23.335 60C19.6683 60 16.7016 63 16.7016 66.6667C16.7016 70.3333 19.6683 73.3333 23.335 73.3333C27.0016 73.3333 30.0016 70.3333 30.0016 66.6667C30.0016 63 27.0016 60 23.335 60ZM56.6683 60C53.0016 60 50.035 63 50.035 66.6667C50.035 70.3333 53.0016 73.3333 56.6683 73.3333C60.335 73.3333 63.335 70.3333 63.335 66.6667C63.335 63 60.335 60 56.6683 60ZM51.835 43.3333C54.335 43.3333 56.535 41.9667 57.6683 39.9L69.6016 18.2667C70.835 16.0667 69.235 13.3333 66.7016 13.3333H17.3683L14.235 6.66667H3.33496V13.3333H10.0016L22.0016 38.6333L17.5016 46.7667C15.0683 51.2333 18.2683 56.6667 23.335 56.6667H63.335V50H23.335L27.0016 43.3333H51.835ZM20.535 20H61.035L51.835 36.6667H28.435L20.535 20Z" fill="#EBFB63"/>
</svg>
